<svg width="43" height="43" viewBox="0 0 43 43" fill="none" xmlns="http://www.w3.org/2000/svg">
<path d="M29.4821 13.3571C29.8607 12.9966 30.3645 12.7974 30.8872 12.8013C31.4099 12.8053 31.9106 13.0121 32.2837 13.3783C32.6568 13.7444 32.8731 14.2411 32.8869 14.7636C32.9007 15.2862 32.711 15.7936 32.3578 16.1789L21.6346 29.5896C21.4503 29.7882 21.2277 29.9475 20.9803 30.0582C20.7329 30.1688 20.4658 30.2284 20.1948 30.2334C19.9239 30.2384 19.6547 30.1888 19.4034 30.0874C19.1521 29.986 18.9238 29.8349 18.7321 29.6433L11.621 22.5322C11.423 22.3476 11.2642 22.1251 11.154 21.8779C11.0438 21.6306 10.9846 21.3637 10.9798 21.0931C10.975 20.8224 11.0248 20.5536 11.1262 20.3026C11.2276 20.0517 11.3785 19.8237 11.5699 19.6323C11.7613 19.4409 11.9892 19.29 12.2402 19.1886C12.4912 19.0872 12.76 19.0374 13.0307 19.0422C13.3013 19.047 13.5682 19.1062 13.8155 19.2164C14.0627 19.3266 14.2852 19.4854 14.4698 19.6834L20.0974 25.3084L29.4311 13.4162L29.4821 13.3571Z" fill="#333333"/>
</svg>
