<svg width="52" height="52" viewBox="0 0 52 52" fill="none" xmlns="http://www.w3.org/2000/svg">
<path d="M13.6797 27.3599V24.3199H39.5197V27.3599H13.6797Z" fill="#2B2B2B"/>
<path d="M28.4238 13.2238L15.8078 25.8398L28.4238 38.4558L26.2958 40.5838L11.5518 25.8398L26.2958 11.0958L28.4238 13.2238Z" fill="#2B2B2B"/>
<path d="M51.68 25.84C51.68 40.128 40.128 51.68 25.84 51.68C11.552 51.68 0 40.128 0 25.84C0 11.552 11.552 -7.62939e-06 25.84 -7.62939e-06C40.128 -7.62939e-06 51.68 11.552 51.68 25.84ZM3.04 25.84C3.04 38.456 13.224 48.64 25.84 48.64C38.456 48.64 48.64 38.456 48.64 25.84C48.64 13.224 38.456 3.03999 25.84 3.03999C13.224 3.03999 3.04 13.224 3.04 25.84Z" fill="#2B2B2B"/>
</svg>
