<svg width="52" height="52" viewBox="0 0 52 52" fill="none" xmlns="http://www.w3.org/2000/svg">
<path d="M13.6797 27.3599V24.3199H39.5197V27.3599H13.6797Z" fill="#006633"/>
<path d="M28.4238 13.224L15.8078 25.84L28.4238 38.456L26.2958 40.584L11.5518 25.84L26.2958 11.096L28.4238 13.224Z" fill="#006633"/>
<path d="M51.68 25.8402C51.68 40.1282 40.128 51.6802 25.84 51.6802C11.552 51.6802 0 40.1282 0 25.8402C0 11.5522 11.552 0.000175476 25.84 0.000175476C40.128 0.000175476 51.68 11.5522 51.68 25.8402ZM3.04 25.8402C3.04 38.4562 13.224 48.6402 25.84 48.6402C38.456 48.6402 48.64 38.4562 48.64 25.8402C48.64 13.2242 38.456 3.04018 25.84 3.04018C13.224 3.04018 3.04 13.2242 3.04 25.8402Z" fill="#006633"/>
</svg>
