<svg width="96" height="96" viewBox="0 0 96 96" fill="none" xmlns="http://www.w3.org/2000/svg">
<path d="M12 20V18C11.4696 18 10.9609 18.2107 10.5858 18.5858C10.2107 18.9609 10 19.4696 10 20H12ZM84 20H86C86 19.4696 85.7893 18.9609 85.4142 18.5858C85.0391 18.2107 84.5304 18 84 18V20ZM12 22H84V18H12V22ZM82 20V68H86V20H82ZM76 74H20V78H76V74ZM14 68V20H10V68H14ZM20 74C18.4087 74 16.8826 73.3679 15.7574 72.2426C14.6321 71.1174 14 69.5913 14 68H10C10 70.6522 11.0536 73.1957 12.9289 75.0711C14.8043 76.9464 17.3478 78 20 78V74ZM82 68C82 69.5913 81.3679 71.1174 80.2426 72.2426C79.1174 73.3679 77.5913 74 76 74V78C78.6522 78 81.1957 76.9464 83.0711 75.0711C84.9464 73.1957 86 70.6522 86 68H82Z" fill="#333333"/>
<path d="M12 20L48 56L84 20" stroke="#333333" stroke-width="4" stroke-linecap="round" stroke-linejoin="round"/>
</svg>
