<svg width="51" height="51" viewBox="0 0 51 51" fill="none" xmlns="http://www.w3.org/2000/svg">
<path d="M38.25 27.6207H27.625V38.2457C27.625 38.8093 27.4011 39.3498 27.0026 39.7483C26.6041 40.1468 26.0636 40.3707 25.5 40.3707C24.9364 40.3707 24.3959 40.1468 23.9974 39.7483C23.5989 39.3498 23.375 38.8093 23.375 38.2457V27.6207H12.75C12.1864 27.6207 11.6459 27.3968 11.2474 26.9983C10.8489 26.5998 10.625 26.0593 10.625 25.4957C10.625 24.9321 10.8489 24.3916 11.2474 23.9931C11.6459 23.5946 12.1864 23.3707 12.75 23.3707H23.375V12.7457C23.375 12.1821 23.5989 11.6416 23.9974 11.2431C24.3959 10.8446 24.9364 10.6207 25.5 10.6207C26.0636 10.6207 26.6041 10.8446 27.0026 11.2431C27.4011 11.6416 27.625 12.1821 27.625 12.7457V23.3707H38.25C38.8136 23.3707 39.3541 23.5946 39.7526 23.9931C40.1511 24.3916 40.375 24.9321 40.375 25.4957C40.375 26.0593 40.1511 26.5998 39.7526 26.9983C39.3541 27.3968 38.8136 27.6207 38.25 27.6207Z" fill="white"/>
</svg>
