<svg width="24" height="24" viewBox="0 0 24 24" fill="none" xmlns="http://www.w3.org/2000/svg">
<path d="M5 22C4.16667 22 3.45833 21.7083 2.875 21.125C2.29167 20.5417 2 19.8333 2 19C2 18.35 2.18767 17.771 2.563 17.263C2.93833 16.755 3.41733 16.392 4 16.174V7.824C3.41667 7.608 2.93767 7.24567 2.563 6.737C2.18833 6.22833 2.00067 5.64933 2 5C2 4.16667 2.29167 3.45833 2.875 2.875C3.45833 2.29167 4.16667 2 5 2C5.65 2 6.22933 2.18767 6.738 2.563C7.24667 2.93833 7.609 3.41733 7.825 4H16.175C16.375 3.41667 16.7293 2.93767 17.238 2.563C17.7467 2.18833 18.334 2.00067 19 2C19.8333 2 20.5417 2.29167 21.125 2.875C21.7083 3.45833 22 4.16667 22 5C22 5.66667 21.8127 6.25433 21.438 6.763C21.0633 7.27167 20.584 7.62567 20 7.825V16.175C20.5833 16.3917 21.0627 16.7543 21.438 17.263C21.8133 17.7717 22.0007 18.3507 22 19C22 19.8333 21.7083 20.5417 21.125 21.125C20.5417 21.7083 19.8333 22 19 22C18.35 22 17.771 21.8127 17.263 21.438C16.755 21.0633 16.392 20.584 16.174 20H7.824C7.60733 20.5833 7.24467 21.0627 6.736 21.438C6.22733 21.8133 5.64867 22.0007 5 22ZM5 6C5.28333 6 5.521 5.904 5.713 5.712C5.905 5.52 6.00067 5.28267 6 5C5.99933 4.71733 5.90333 4.48 5.712 4.288C5.52067 4.096 5.28333 4 5 4C4.71667 4 4.47933 4.096 4.288 4.288C4.09667 4.48 4.00067 4.71733 4 5C3.99933 5.28267 4.09533 5.52033 4.288 5.713C4.48067 5.90567 4.718 6.00133 5 6ZM19 6C19.2833 6 19.521 5.904 19.713 5.712C19.905 5.52 20.0007 5.28267 20 5C19.9993 4.71733 19.9033 4.48 19.712 4.288C19.5207 4.096 19.2833 4 19 4C18.7167 4 18.4793 4.096 18.288 4.288C18.0967 4.48 18.0007 4.71733 18 5C17.9993 5.28267 18.0953 5.52033 18.288 5.713C18.4807 5.90567 18.718 6.00133 19 6ZM7.825 18H16.175C16.325 17.5667 16.5583 17.1917 16.875 16.875C17.1917 16.5583 17.5667 16.325 18 16.175V7.825C17.5667 7.675 17.1917 7.44167 16.875 7.125C16.5583 6.80833 16.325 6.43333 16.175 6H7.825C7.675 6.43333 7.44167 6.80833 7.125 7.125C6.80833 7.44167 6.43333 7.675 6 7.825V16.175C6.43333 16.325 6.80833 16.5583 7.125 16.875C7.44167 17.1917 7.675 17.5667 7.825 18ZM19 20C19.2833 20 19.521 19.904 19.713 19.712C19.905 19.52 20.0007 19.2827 20 19C19.9993 18.7173 19.9033 18.48 19.712 18.288C19.5207 18.096 19.2833 18 19 18C18.7167 18 18.4793 18.096 18.288 18.288C18.0967 18.48 18.0007 18.7173 18 19C17.9993 19.2827 18.0953 19.5203 18.288 19.713C18.4807 19.9057 18.718 20.0013 19 20ZM5 20C5.28333 20 5.521 19.904 5.713 19.712C5.905 19.52 6.00067 19.2827 6 19C5.99933 18.7173 5.90333 18.48 5.712 18.288C5.52067 18.096 5.28333 18 5 18C4.71667 18 4.47933 18.096 4.288 18.288C4.09667 18.48 4.00067 18.7173 4 19C3.99933 19.2827 4.09533 19.5203 4.288 19.713C4.48067 19.9057 4.718 20.0013 5 20Z" fill="black"/>
</svg>
