<svg width="35" height="35" viewBox="0 0 35 35" fill="none" xmlns="http://www.w3.org/2000/svg">
<path d="M5.8335 27.7084V24.7918H8.75016V14.5834C8.75016 12.5661 9.3578 10.7738 10.5731 9.20654C11.7884 7.63932 13.3682 6.61217 15.3127 6.12508V5.10425C15.3127 4.49661 15.5256 3.98036 15.9514 3.5555C16.3772 3.13064 16.8935 2.91772 17.5002 2.91675C18.1068 2.91578 18.6236 3.1287 19.0504 3.5555C19.4772 3.98231 19.6896 4.49856 19.6877 5.10425V6.12508C21.6321 6.6112 23.212 7.63835 24.4272 9.20654C25.6425 10.7747 26.2502 12.567 26.2502 14.5834V24.7918H29.1668V27.7084H5.8335ZM17.5002 32.0834C16.6981 32.0834 16.0117 31.7981 15.441 31.2274C14.8703 30.6567 14.5845 29.9698 14.5835 29.1668H20.4168C20.4168 29.9688 20.1315 30.6557 19.5608 31.2274C18.9901 31.799 18.3032 32.0844 17.5002 32.0834Z" fill="#3F3D3D"/>
</svg>
