<svg width="21" height="21" viewBox="0 0 21 21" fill="none" xmlns="http://www.w3.org/2000/svg">
<path d="M16.6508 17.8404L11.2986 12.4883C10.8739 12.8281 10.3854 13.0971 9.83318 13.2953C9.28098 13.4935 8.69338 13.5927 8.07038 13.5927C6.52704 13.5927 5.22101 13.058 4.15228 11.9887C3.08355 10.9194 2.54891 9.6134 2.54834 8.07062C2.54777 6.52785 3.08242 5.22182 4.15228 4.15252C5.22214 3.08323 6.52817 2.54858 8.07038 2.54858C9.61259 2.54858 10.9189 3.08323 11.9893 4.15252C13.0598 5.22182 13.5941 6.52785 13.5924 8.07062C13.5924 8.69362 13.4933 9.28122 13.2951 9.83343C13.0969 10.3856 12.8278 10.8741 12.488 11.2989L17.8401 16.651L16.6508 17.8404ZM8.07038 11.8936C9.13231 11.8936 10.0351 11.522 10.7787 10.779C11.5224 10.0359 11.8939 9.13312 11.8933 8.07062C11.8928 7.00813 11.5212 6.10563 10.7787 5.36313C10.0362 4.62062 9.13344 4.24881 8.07038 4.24767C7.00732 4.24654 6.10482 4.61836 5.36288 5.36313C4.62095 6.10789 4.24913 7.01039 4.24743 8.07062C4.24573 9.13085 4.61755 10.0336 5.36288 10.779C6.10821 11.5243 7.01071 11.8958 8.07038 11.8936Z" fill="#F8F8F8"/>
</svg>
