<svg width="96" height="96" viewBox="0 0 96 96" fill="none" xmlns="http://www.w3.org/2000/svg">
<path d="M32.768 28V23.384C32.768 22.2854 33.16 21.344 33.944 20.56C34.728 19.776 35.6693 19.384 36.768 19.384H59.232C60.3307 19.384 61.272 19.776 62.056 20.56C62.84 21.344 63.232 22.2854 63.232 23.384V28H70.8C71.5787 28 72.2853 28.2067 72.92 28.62C73.5547 29.0334 74.0173 29.6067 74.308 30.34L83.248 50.552C83.4987 51.1387 83.6853 51.7627 83.808 52.424C83.9307 53.0854 83.9947 53.6734 84 54.188V72C84 73.1014 83.608 74.0427 82.824 74.824C82.04 75.6054 81.0987 75.9974 80 76H16C14.8987 76 13.9573 75.608 13.176 74.824C12.3947 74.04 12.0027 73.0987 12 72V54.216C12 53.528 12.0627 52.892 12.188 52.308C12.3133 51.7214 12.5013 51.136 12.752 50.552L21.692 30.34C21.9853 29.6067 22.448 29.0334 23.08 28.62C23.712 28.2067 24.4187 28 25.2 28H32.768ZM36.768 28H59.232V23.384H36.768V28ZM30 50.768V46.768H34V50.768H62V46.768H66V50.768H78.984L70.8 32H25.2L17.016 50.768H30ZM30 54.768H16V72H80V54.768H66V58.768H62V54.768H34V58.768H30V54.768Z" fill="#333333"/>
</svg>
