<svg width="96" height="96" viewBox="0 0 96 96" fill="none" xmlns="http://www.w3.org/2000/svg">
<path d="M48 83.848C39.9653 81.4613 33.2893 76.5933 27.972 69.244C22.6547 61.8947 19.9973 53.6133 20 44.4V22.768L48 12.308L76 22.768V44.4C76 48.888 75.3027 53.288 73.908 57.6C72.5133 61.912 70.3493 66.04 67.416 69.984L55.076 57.648C54.0813 58.432 52.9773 59.0187 51.764 59.408C50.5507 59.7973 49.296 59.9947 48 60C44.7013 60 41.876 58.8253 39.524 56.476C37.172 54.1267 35.9973 51.3013 36 48C36.0027 44.6987 37.1773 41.8733 39.524 39.524C41.8707 37.1747 44.696 36 48 36C51.304 36 54.1293 37.1747 56.476 39.524C58.8227 41.8733 59.9973 44.6987 60 48C60 49.2346 59.8173 50.4267 59.452 51.576C59.0867 52.7253 58.5867 53.8053 57.952 54.816L66.876 63.736C68.4147 60.8507 69.6547 57.8186 70.596 54.64C71.5373 51.4613 72.0053 48.048 72 44.4V25.5L48 16.58L24 25.5V44.4C24 52.4667 26.2667 59.8 30.8 66.4C35.3333 73 41.0667 77.4 48 79.6C49.7333 79.0667 51.384 78.384 52.952 77.552C54.52 76.72 56.0693 75.736 57.6 74.6L60.12 77.584C58.128 79.024 56.1947 80.2453 54.32 81.248C52.4453 82.248 50.3387 83.1147 48 83.848ZM48 56C50.2 56 52.084 55.2173 53.652 53.652C55.22 52.0867 56.0027 50.2027 56 48C55.9973 45.7973 55.2147 43.9147 53.652 42.352C52.0893 40.7893 50.2053 40.0053 48 40C45.7947 39.9947 43.912 40.7787 42.352 42.352C40.792 43.9253 40.008 45.808 40 48C39.992 50.192 40.776 52.076 42.352 53.652C43.928 55.228 45.8107 56.0107 48 56Z" fill="#333333"/>
</svg>
