<svg width="96" height="96" viewBox="0 0 96 96" fill="none" xmlns="http://www.w3.org/2000/svg">
<path d="M14.46 80.768C12.62 80.768 11.084 80.152 9.852 78.92C8.62 77.688 8.00267 76.1507 8 74.308V37.692H12V74.308C12 74.9213 12.256 75.4853 12.768 76C13.2827 76.512 13.8467 76.768 14.46 76.768H74V80.768H14.46ZM26.46 68.768C24.62 68.768 23.084 68.152 21.852 66.92C20.6173 65.6853 20 64.148 20 62.308V24.768H41.232V18.46C41.232 16.62 41.848 15.084 43.08 13.852C44.312 12.62 45.8493 12.0027 47.692 12H60.308C62.148 12 63.6853 12.6173 64.92 13.852C66.1547 15.0867 66.7707 16.6227 66.768 18.46V24.768H88V62.308C88 64.148 87.384 65.6853 86.152 66.92C84.92 68.1547 83.3827 68.7707 81.54 68.768H26.46ZM26.46 64.768H81.54C82.1533 64.768 82.7173 64.512 83.232 64C83.7467 63.488 84.0027 62.924 84 62.308V28.768H24V62.308C24 62.9213 24.256 63.4853 24.768 64C25.28 64.5147 25.844 64.7707 26.46 64.768ZM45.232 24.768H62.768V18.46C62.768 17.8467 62.512 17.2827 62 16.768C61.488 16.2533 60.924 15.9973 60.308 16H47.692C47.0787 16 46.5147 16.256 46 16.768C45.4853 17.28 45.2293 17.844 45.232 18.46V24.768Z" fill="#333333"/>
</svg>
