<svg width="96" height="96" viewBox="0 0 96 96" fill="none" xmlns="http://www.w3.org/2000/svg">
<path d="M59.54 72C57.2013 72 55.2053 71.1733 53.552 69.52C51.9013 67.872 51.076 65.8786 51.076 63.54C51.076 61.2013 51.9027 59.2053 53.556 57.552C55.2093 55.8986 57.204 55.0733 59.54 55.076C61.876 55.0786 63.8707 55.9053 65.524 57.556C67.1773 59.2066 68.0027 61.2013 68 63.54C67.9973 65.8786 67.1707 67.8733 65.52 69.524C63.872 71.1746 61.8787 72 59.54 72ZM22.46 84C20.62 84 19.084 83.384 17.852 82.152C16.62 80.92 16.0027 79.3826 16 77.54V26.46C16 24.62 16.6173 23.084 17.852 21.852C19.0867 20.62 20.6227 20.0026 22.46 20H29.54V11.08H33.848V20H62.46V11.08H66.46V20H73.54C75.38 20 76.916 20.6173 78.148 21.852C79.38 23.0866 79.9973 24.6226 80 26.46V77.54C80 79.38 79.384 80.916 78.152 82.148C76.92 83.38 75.3827 83.9973 73.54 84H22.46ZM22.46 80H73.54C74.1533 80 74.7173 79.744 75.232 79.232C75.7467 78.72 76.0027 78.156 76 77.54V42.46H20V77.54C20 78.1533 20.256 78.7173 20.768 79.232C21.28 79.7466 21.844 80.0026 22.46 80ZM20 38.46H76V26.46C76 25.8466 75.744 25.2826 75.232 24.768C74.72 24.2533 74.156 23.9973 73.54 24H22.46C21.8467 24 21.2827 24.256 20.768 24.768C20.2533 25.28 19.9973 25.844 20 26.46V38.46Z" fill="#333333"/>
</svg>
