<svg width="96" height="96" viewBox="0 0 96 96" fill="none" xmlns="http://www.w3.org/2000/svg">
<path d="M90 39.75H85.4625L74.8463 15.8663C74.4337 14.9387 73.761 14.1507 72.9098 13.5976C72.0585 13.0445 71.0652 12.7501 70.05 12.75H25.95C24.9348 12.7501 23.9415 13.0445 23.0902 13.5976C22.239 14.1507 21.5663 14.9387 21.1537 15.8663L10.5375 39.75H6C5.40326 39.75 4.83097 39.9871 4.40901 40.409C3.98705 40.831 3.75 41.4033 3.75 42C3.75 42.5967 3.98705 43.169 4.40901 43.591C4.83097 44.0129 5.40326 44.25 6 44.25H9.75V75C9.75 76.3924 10.3031 77.7277 11.2877 78.7123C12.2723 79.6969 13.6076 80.25 15 80.25H24C25.3924 80.25 26.7277 79.6969 27.7123 78.7123C28.6969 77.7277 29.25 76.3924 29.25 75V68.25H66.75V75C66.75 76.3924 67.3031 77.7277 68.2877 78.7123C69.2723 79.6969 70.6076 80.25 72 80.25H81C82.3924 80.25 83.7277 79.6969 84.7123 78.7123C85.6969 77.7277 86.25 76.3924 86.25 75V44.25H90C90.5967 44.25 91.169 44.0129 91.591 43.591C92.0129 43.169 92.25 42.5967 92.25 42C92.25 41.4033 92.0129 40.831 91.591 40.409C91.169 39.9871 90.5967 39.75 90 39.75ZM25.2638 17.6962C25.3226 17.5634 25.4188 17.4505 25.5406 17.3712C25.6625 17.292 25.8047 17.2499 25.95 17.25H70.05C70.1953 17.2499 70.3375 17.292 70.4594 17.3712C70.5812 17.4505 70.6774 17.5634 70.7363 17.6962L80.5387 39.75H15.4613L25.2638 17.6962ZM24.75 75C24.75 75.1989 24.671 75.3897 24.5303 75.5303C24.3897 75.671 24.1989 75.75 24 75.75H15C14.8011 75.75 14.6103 75.671 14.4697 75.5303C14.329 75.3897 14.25 75.1989 14.25 75V68.25H24.75V75ZM81 75.75H72C71.8011 75.75 71.6103 75.671 71.4697 75.5303C71.329 75.3897 71.25 75.1989 71.25 75V68.25H81.75V75C81.75 75.1989 81.671 75.3897 81.5303 75.5303C81.3897 75.671 81.1989 75.75 81 75.75ZM81.75 63.75H14.25V44.25H81.75V63.75ZM21.75 54C21.75 53.4033 21.9871 52.831 22.409 52.409C22.831 51.9871 23.4033 51.75 24 51.75H30C30.5967 51.75 31.169 51.9871 31.591 52.409C32.0129 52.831 32.25 53.4033 32.25 54C32.25 54.5967 32.0129 55.169 31.591 55.591C31.169 56.0129 30.5967 56.25 30 56.25H24C23.4033 56.25 22.831 56.0129 22.409 55.591C21.9871 55.169 21.75 54.5967 21.75 54ZM63.75 54C63.75 53.4033 63.9871 52.831 64.409 52.409C64.831 51.9871 65.4033 51.75 66 51.75H72C72.5967 51.75 73.169 51.9871 73.591 52.409C74.0129 52.831 74.25 53.4033 74.25 54C74.25 54.5967 74.0129 55.169 73.591 55.591C73.169 56.0129 72.5967 56.25 72 56.25H66C65.4033 56.25 64.831 56.0129 64.409 55.591C63.9871 55.169 63.75 54.5967 63.75 54Z" fill="#333333"/>
</svg>
