<svg width="96" height="96" viewBox="0 0 96 96" fill="none" xmlns="http://www.w3.org/2000/svg">
<path d="M42.2251 59.4112C46.4033 57.043 49.6802 53.3584 51.5445 48.9323C53.4088 44.5062 53.7557 39.5875 52.5311 34.9436C51.3065 30.2996 48.5793 26.1915 44.7749 23.2603C40.9704 20.329 36.3028 18.7394 31.5001 18.7394C26.6973 18.7394 22.0297 20.329 18.2252 23.2603C14.4208 26.1915 11.6936 30.2996 10.469 34.9436C9.24438 39.5875 9.5913 44.5062 11.4556 48.9323C13.32 53.3584 16.5968 57.043 20.7751 59.4112C13.0312 61.88 6.38085 66.9536 1.95381 73.77C1.62759 74.2698 1.51327 74.8786 1.63599 75.4627C1.7587 76.0468 2.10841 76.5581 2.60818 76.8844C3.10795 77.2106 3.71684 77.3249 4.30089 77.2022C4.88495 77.0795 5.39634 76.7298 5.72256 76.23C8.51484 71.9368 12.3352 68.409 16.8368 65.9668C21.3384 63.5247 26.3787 62.2455 31.5001 62.2455C36.6214 62.2455 41.6617 63.5247 46.1633 65.9668C50.6649 68.409 54.4853 71.9368 57.2776 76.23C57.625 76.6753 58.1273 76.9736 58.6845 77.0658C59.2418 77.1579 59.8133 77.037 60.2856 76.7272C60.7579 76.4174 61.0964 75.9413 61.2338 75.3934C61.3713 74.8456 61.2976 74.2661 61.0276 73.77C56.6052 66.957 49.962 61.8838 42.2251 59.4112ZM14.2501 40.5C14.2501 37.0883 15.2618 33.7532 17.1572 30.9164C19.0527 28.0797 21.7467 25.8687 24.8988 24.5631C28.0508 23.2575 31.5192 22.9159 34.8654 23.5814C38.2115 24.247 41.2852 25.8899 43.6976 28.3024C46.1101 30.7149 47.753 33.7885 48.4186 37.1347C49.0842 40.4809 48.7426 43.9493 47.437 47.1013C46.1314 50.2533 43.9204 52.9474 41.0836 54.8428C38.2469 56.7383 34.9118 57.75 31.5001 57.75C26.9269 57.744 22.5428 55.9247 19.309 52.691C16.0753 49.4573 14.256 45.0731 14.2501 40.5ZM93.3751 76.875C92.8757 77.2009 92.2674 77.3152 91.6838 77.1928C91.1002 77.0705 90.589 76.7215 90.2626 76.2225C87.4753 71.9288 83.6577 68.401 79.1579 65.9605C74.6581 63.52 69.6191 62.2444 64.5001 62.25C63.9033 62.25 63.331 62.0129 62.9091 61.591C62.4871 61.169 62.2501 60.5967 62.2501 60C62.2501 59.4033 62.4871 58.831 62.9091 58.409C63.331 57.987 63.9033 57.75 64.5001 57.75C67.0402 57.7474 69.5485 57.1839 71.8457 56.0996C74.1428 55.0154 76.1722 53.4372 77.7888 51.4777C79.4053 49.5183 80.5692 47.2261 81.1972 44.7647C81.8252 42.3034 81.9019 39.7337 81.4217 37.2393C80.9415 34.7449 79.9164 32.3874 78.4196 30.3351C76.9227 28.2828 74.991 26.5864 72.7626 25.3671C70.5342 24.1478 68.0639 23.4357 65.5284 23.2817C62.9929 23.1277 60.4547 23.5356 58.0951 24.4762C57.8202 24.5888 57.5259 24.6458 57.2289 24.644C56.932 24.6422 56.6383 24.5817 56.3649 24.4658C56.0915 24.35 55.8437 24.1812 55.6358 23.9691C55.4279 23.7571 55.264 23.506 55.1537 23.2303C55.0433 22.9546 54.9886 22.6598 54.9927 22.3629C54.9968 22.066 55.0596 21.7728 55.1776 21.5003C55.2956 21.2278 55.4663 20.9813 55.68 20.7751C55.8936 20.5688 56.146 20.407 56.4226 20.2987C61.5406 18.2583 67.2424 18.2363 72.3761 20.2372C77.5097 22.2382 81.6926 26.113 84.0798 31.0788C86.4671 36.0446 86.8806 41.7314 85.237 46.9904C83.5935 52.2494 80.0152 56.6886 75.2251 59.4112C82.9689 61.88 89.6193 66.9536 94.0463 73.77C94.368 74.271 94.4781 74.8792 94.3522 75.4612C94.2264 76.0432 93.875 76.5516 93.3751 76.875Z" fill="#333333"/>
</svg>
