<svg width="29" height="29" viewBox="0 0 29 29" fill="none" xmlns="http://www.w3.org/2000/svg">
<path d="M23.6181 21.6942C23.8735 21.9496 24.0169 22.296 24.0169 22.6571C24.0169 23.0183 23.8735 23.3646 23.6181 23.62C23.3627 23.8754 23.0163 24.0189 22.6552 24.0189C22.294 24.0189 21.9477 23.8754 21.6923 23.62L14.5001 16.4255L7.30558 23.6178C7.05021 23.8731 6.70384 24.0166 6.34269 24.0166C5.98154 24.0166 5.63517 23.8731 5.3798 23.6178C5.12443 23.3624 4.98096 23.016 4.98096 22.6549C4.98096 22.2937 5.12443 21.9473 5.3798 21.692L12.5743 14.4997L5.38206 7.30525C5.12669 7.04987 4.98322 6.70351 4.98322 6.34236C4.98322 5.9812 5.12669 5.63484 5.38206 5.37947C5.63744 5.12409 5.9838 4.98062 6.34496 4.98062C6.70611 4.98062 7.05247 5.12409 7.30785 5.37947L14.5001 12.574L21.6946 5.37833C21.9499 5.12296 22.2963 4.97949 22.6575 4.97949C23.0186 4.97949 23.365 5.12296 23.6203 5.37833C23.8757 5.63371 24.0192 5.98007 24.0192 6.34122C24.0192 6.70238 23.8757 7.04874 23.6203 7.30412L16.4259 14.4997L23.6181 21.6942Z" fill="#D9D9D9"/>
</svg>
