<svg width="1523" height="91" viewBox="0 0 1523 91" fill="none" xmlns="http://www.w3.org/2000/svg">
<rect width="1523" height="91" rx="13.25" fill="white"/>
<path d="M1408 0H1509.75C1517.07 0 1523 5.93223 1523 13.25V77.75C1523 85.0678 1517.07 91 1509.75 91H1408V0Z" fill="#414141"/>
<path d="M1439.16 44.9999C1439.16 30.7119 1450.71 19.1599 1465 19.1599C1479.29 19.1599 1490.84 30.7119 1490.84 44.9999C1490.84 59.2879 1479.29 70.8399 1465 70.8399C1450.71 70.8399 1439.16 59.2879 1439.16 44.9999ZM1487.8 44.9999C1487.8 32.3839 1477.62 22.1999 1465 22.1999C1452.38 22.1999 1442.2 32.3839 1442.2 44.9999C1442.2 57.6159 1452.38 67.7999 1465 67.7999C1477.62 67.7999 1487.8 57.6159 1487.8 44.9999Z" fill="white"/>
<path d="M1462.42 57.6161L1475.03 45.0001L1462.42 32.3841L1464.54 30.2561L1479.29 45.0001L1464.54 59.7441L1462.42 57.6161Z" fill="white"/>
<path d="M1477.16 43.48V46.52H1451.32V43.48H1477.16Z" fill="white"/>
</svg>
