<svg width="21" height="24" viewBox="0 0 21 24" fill="none" xmlns="http://www.w3.org/2000/svg">
<path d="M3.5 7H17.5M8.75 11V17M12.25 11V17M4.375 7L5.25 19C5.25 19.5304 5.43437 20.0391 5.76256 20.4142C6.09075 20.7893 6.53587 21 7 21H14C14.4641 21 14.9092 20.7893 15.2374 20.4142C15.5656 20.0391 15.75 19.5304 15.75 19L16.625 7M7.875 7V4C7.875 3.73478 7.96719 3.48043 8.13128 3.29289C8.29538 3.10536 8.51794 3 8.75 3H12.25C12.4821 3 12.7046 3.10536 12.8687 3.29289C13.0328 3.48043 13.125 3.73478 13.125 4V7" stroke="#4CAF50" stroke-width="2" stroke-linecap="round" stroke-linejoin="round"/>
</svg>
