<svg width="25" height="31" viewBox="0 0 25 31" fill="none" xmlns="http://www.w3.org/2000/svg">
<path d="M0.833252 25.7083V22.7917H3.74992V12.5833C3.74992 10.566 4.35756 8.77367 5.57284 7.20645C6.78811 5.63923 8.36797 4.61208 10.3124 4.12499V3.10416C10.3124 2.49652 10.5253 1.98027 10.9512 1.55541C11.377 1.13055 11.8933 0.917632 12.4999 0.91666C13.1066 0.915688 13.6233 1.1286 14.0501 1.55541C14.4769 1.98222 14.6894 2.49847 14.6874 3.10416V4.12499C16.6319 4.6111 18.2117 5.63826 19.427 7.20645C20.6423 8.77465 21.2499 10.5669 21.2499 12.5833V22.7917H24.1666V25.7083H0.833252ZM12.4999 30.0833C11.6978 30.0833 11.0114 29.798 10.4408 29.2273C9.87006 28.6566 9.58422 27.9697 9.58325 27.1667H15.4166C15.4166 27.9687 15.1312 28.6556 14.5605 29.2273C13.9899 29.799 13.303 30.0843 12.4999 30.0833Z" fill="white"/>
</svg>
