<svg width="225" height="176" viewBox="0 0 225 176" fill="none" xmlns="http://www.w3.org/2000/svg">
<path d="M20.2 175.5C14.4417 175.5 9.6375 173.575 5.7875 169.725C1.9375 165.875 0.00833333 161.067 0 155.3V20.7C0 14.9417 1.92917 10.1375 5.7875 6.2875C9.64583 2.4375 14.4458 0.508333 20.1875 0.5H82.45L107.45 25.5H204.812C210.562 25.5 215.367 27.4292 219.225 31.2875C223.083 35.1458 225.008 39.95 225 45.7V155.312C225 161.062 223.075 165.867 219.225 169.725C215.375 173.583 210.571 175.508 204.812 175.5H20.2ZM20.2 163H204.812C207.054 163 208.896 162.279 210.337 160.837C211.779 159.396 212.5 157.554 212.5 155.312V45.6875C212.5 43.4458 211.779 41.6042 210.337 40.1625C208.896 38.7208 207.054 38 204.812 38H102.438L77.4375 13H20.1875C17.9458 13 16.1042 13.7208 14.6625 15.1625C13.2208 16.6042 12.5 18.45 12.5 20.7V155.312C12.5 157.554 13.2208 159.396 14.6625 160.837C16.1042 162.279 17.95 163 20.2 163Z" fill="black"/>
</svg>
