<svg width="72" height="75" viewBox="0 0 72 75" fill="none" xmlns="http://www.w3.org/2000/svg">
<path d="M70.3696 32.1813L39.7575 1.56926C39.26 1.07174 38.6694 0.677093 38.0194 0.407839C37.3694 0.138584 36.6728 0 35.9692 0C35.2657 0 34.569 0.138584 33.919 0.407839C33.269 0.677093 32.6784 1.07174 32.181 1.56926L1.56889 32.1813C1.07008 32.6778 0.674614 33.2682 0.40533 33.9185C0.136047 34.5687 -0.00171098 35.2658 1.6039e-05 35.9696V72.7041C1.6039e-05 73.313 0.241905 73.897 0.672471 74.3275C1.10304 74.7581 1.68701 75 2.29592 75H26.7856C27.3945 75 27.9785 74.7581 28.409 74.3275C28.8396 73.897 29.0815 73.313 29.0815 72.7041V50.5103H42.8569V72.7041C42.8569 73.313 43.0988 73.897 43.5294 74.3275C43.96 74.7581 44.5439 75 45.1528 75H69.6425C70.2514 75 70.8354 74.7581 71.266 74.3275C71.6965 73.897 71.9384 73.313 71.9384 72.7041V35.9696C71.9402 35.2658 71.8024 34.5687 71.5331 33.9185C71.2638 33.2682 70.8684 32.6778 70.3696 32.1813ZM67.3466 70.4082H47.4488V48.2144C47.4488 47.6055 47.2069 47.0215 46.7763 46.591C46.3457 46.1604 45.7618 45.9185 45.1528 45.9185H26.7856C26.1767 45.9185 25.5927 46.1604 25.1621 46.591C24.7316 47.0215 24.4897 47.6055 24.4897 48.2144V70.4082H4.59183V35.9696C4.59125 35.8689 4.61055 35.769 4.64864 35.6758C4.68672 35.5825 4.74284 35.4977 4.81377 35.4262L35.4259 4.81414C35.497 4.74241 35.5816 4.68547 35.6749 4.64662C35.7682 4.60777 35.8682 4.58776 35.9692 4.58776C36.0702 4.58776 36.1703 4.60777 36.2635 4.64662C36.3568 4.68547 36.4414 4.74241 36.5126 4.81414L67.1247 35.4262C67.1956 35.4977 67.2517 35.5825 67.2898 35.6758C67.3279 35.769 67.3472 35.8689 67.3466 35.9696V70.4082Z" fill="#333333"/>
</svg>
