<svg width="24" height="24" viewBox="0 0 24 24" fill="none" xmlns="http://www.w3.org/2000/svg">
<g clip-path="url(#clip0_147_27)">
<path d="M7.38441 0.173775C6.43051 0.162982 5.48395 0.341543 4.59954 0.699116C3.71513 1.05669 2.91045 1.58617 2.23209 2.25689C1.55374 2.92762 1.01519 3.72626 0.647634 4.60657C0.280078 5.48687 0.0908203 6.43135 0.0908203 7.38531C0.0908203 8.33927 0.280078 9.28375 0.647634 10.1641C1.01519 11.0444 1.55374 11.843 2.23209 12.5137C2.91045 13.1845 3.71513 13.7139 4.59954 14.0715C5.48395 14.4291 6.43051 14.6076 7.38441 14.5969C9.29715 14.5969 11.1316 13.837 12.4841 12.4845C13.8366 11.132 14.5964 9.29759 14.5964 7.38485C14.5964 5.47211 13.8366 3.63771 12.4841 2.2852C11.1316 0.932685 9.29715 0.173775 7.38441 0.173775ZM5.07672 2.68177C5.39141 2.68117 5.70313 2.74272 5.99397 2.86289C6.28482 2.98307 6.54906 3.1595 6.77154 3.38207C6.99402 3.60463 7.17035 3.86895 7.29042 4.15984C7.41048 4.45073 7.47191 4.76247 7.47118 5.07716C7.47203 5.39184 7.41068 5.70359 7.29065 5.99449C7.17062 6.28538 6.99428 6.54968 6.77176 6.7722C6.54924 6.99472 6.28494 7.17106 5.99405 7.29109C5.70315 7.41112 5.3914 7.47247 5.07672 7.47162C4.76203 7.47247 4.45028 7.41112 4.15939 7.29109C3.8685 7.17106 3.60419 6.99472 3.38168 6.7722C3.15916 6.54968 2.98282 6.28538 2.86279 5.99449C2.74276 5.70359 2.6814 5.39184 2.68226 5.07716C2.68165 4.76254 2.74317 4.4509 2.86329 4.16012C2.9834 3.86934 3.15975 3.60513 3.38222 3.38266C3.60469 3.1602 3.86889 2.98384 4.15968 2.86373C4.45046 2.74361 4.7621 2.68117 5.07672 2.68177ZM15.3173 10.7301C15.064 11.3221 14.7445 11.8836 14.3647 12.4036L21.5767 19.6147C21.7284 19.7684 21.8134 19.9757 21.8134 20.1916C21.8134 20.4076 21.7284 20.6148 21.5767 20.7685C21.4228 20.9197 21.2156 21.0045 20.9998 21.0045C20.784 21.0045 20.5768 20.9197 20.4229 20.7685L13.2976 13.6147C12.3978 14.4671 11.3257 15.1168 10.1536 15.5199V16.7892C10.1536 17.1953 10.4961 17.5387 10.9041 17.5387H12.9229V19.5584C12.9229 19.9645 13.2653 20.3079 13.6733 20.3079H15.6921V22.3276C15.6921 22.7338 16.0355 23.0772 16.4426 23.0772H18.49L19.0096 23.5969C19.3253 23.9116 22.4878 24.0695 23.2789 23.2793C24.07 22.4873 23.9103 19.3249 23.5955 19.0101L15.3173 10.7301Z" fill="black"/>
</g>
<defs>
<clipPath id="clip0_147_27">
<rect width="24" height="24" fill="white"/>
</clipPath>
</defs>
</svg>
